# Blender v3.6.0 OBJ File: 'AT4C.blend'
# www.blender.org
mtllib Pot.mtl
o Cylinder.021
v 0.000000 1.236215 -1.000000
v 0.000000 6.236216 -0.859307
v 0.382683 1.236215 -0.923880
v 0.328842 6.236216 -0.793896
v 0.707107 1.236215 -0.707107
v 0.607621 6.236216 -0.607621
v 0.923880 1.236215 -0.382683
v 0.793896 6.236216 -0.328842
v 1.000000 1.236215 0.000000
v 0.859307 6.236216 0.000000
v 0.923880 1.236215 0.382683
v 0.793896 6.236216 0.328842
v 0.707107 1.236215 0.707107
v 0.607621 6.236216 0.607621
v 0.382683 1.236215 0.923880
v 0.328842 6.236216 0.793896
v 0.000000 1.236215 1.000000
v 0.000000 6.236216 0.859307
v -0.382683 1.236215 0.923880
v -0.328842 6.236216 0.793896
v -0.707107 1.236215 0.707107
v -0.607621 6.236216 0.607621
v -0.923880 1.236215 0.382683
v -0.793896 6.236216 0.328842
v -1.000000 1.236215 0.000000
v -0.859307 6.236216 0.000000
v -0.923880 1.236215 -0.382683
v -0.793896 6.236216 -0.328842
v -0.707107 1.236215 -0.707107
v -0.607621 6.236216 -0.607621
v -0.382683 1.236215 -0.923880
v -0.328842 6.236216 -0.793896
v 0.382683 6.236216 -0.923880
v 0.000000 6.236216 -1.000000
v 0.707107 6.236216 -0.707107
v 0.923880 6.236216 -0.382683
v 1.000000 6.236216 0.000000
v 0.923880 6.236216 0.382683
v 0.707107 6.236216 0.707107
v 0.382683 6.236216 0.923880
v 0.000000 6.236216 1.000000
v -0.382683 6.236216 0.923880
v -0.707107 6.236216 0.707107
v -0.923880 6.236216 0.382683
v -1.000000 6.236216 0.000000
v -0.923880 6.236216 -0.382683
v -0.707107 6.236216 -0.707107
v -0.382683 6.236216 -0.923880
v 0.328842 1.524609 -0.793896
v -0.000000 1.524609 -0.859307
v 0.607621 1.524609 -0.607621
v 0.793896 1.524609 -0.328842
v 0.859306 1.524609 0.000000
v 0.793896 1.524609 0.328842
v 0.607621 1.524609 0.607621
v 0.328842 1.524609 0.793896
v -0.000000 1.524609 0.859307
v -0.328843 1.524609 0.793896
v -0.607622 1.524609 0.607621
v -0.793896 1.524609 0.328842
v -0.859307 1.524609 0.000000
v -0.793896 1.524609 -0.328842
v -0.607622 1.524609 -0.607621
v -0.328843 1.524609 -0.793896
v -0.000000 0.693449 -1.490015
v 0.570204 0.693449 -1.376594
v 1.053600 0.693449 -1.053600
v 1.376594 0.693449 -0.570204
v 1.490015 0.693449 -0.000000
v 1.376594 0.693449 0.570204
v 1.053600 0.693449 1.053600
v 0.570204 0.693449 1.376594
v -0.000000 0.693449 1.490015
v -0.570204 0.693449 1.376594
v -1.053600 0.693449 1.053600
v -1.376594 0.693449 0.570204
v -1.490015 0.693449 -0.000000
v -1.376594 0.693449 -0.570204
v -1.053600 0.693449 -1.053600
v -0.570204 0.693449 -1.376594
v -0.000000 0.388712 -1.490015
v 0.570204 0.388712 -1.376594
v 1.053600 0.388712 -1.053600
v 1.376594 0.388712 -0.570204
v 1.490015 0.388712 -0.000000
v 1.376594 0.388712 0.570204
v 1.053600 0.388712 1.053600
v 0.570204 0.388712 1.376594
v -0.000000 0.388712 1.490015
v -0.570204 0.388712 1.376594
v -1.053600 0.388712 1.053600
v -1.376594 0.388712 0.570204
v -1.490015 0.388712 -0.000000
v -1.376594 0.388712 -0.570204
v -1.053600 0.388712 -1.053600
v -0.570204 0.388712 -1.376594
vt 0.875000 0.500000
vt 0.937500 0.500000
vt 0.937500 0.500000
vt 0.250000 0.456234
vt 0.341844 0.471731
vt 0.250000 0.490000
vt 0.395829 0.395829
vt 0.328922 0.440535
vt 0.440535 0.328922
vt 0.419706 0.419706
vt 0.456234 0.250000
vt 0.471731 0.341844
vt 0.471731 0.158156
vt 0.490000 0.250000
vt 0.395829 0.104171
vt 0.440535 0.171078
vt 0.328922 0.059465
vt 0.419706 0.080294
vt 0.250000 0.043766
vt 0.341844 0.028269
vt 0.158156 0.028269
vt 0.250000 0.010000
vt 0.104171 0.104171
vt 0.171078 0.059465
vt 0.059465 0.171078
vt 0.080294 0.080294
vt 0.043766 0.250000
vt 0.028269 0.158156
vt 0.028269 0.341844
vt 0.010000 0.250000
vt 0.104171 0.395829
vt 0.059465 0.328922
vt 0.171078 0.440535
vt 0.080294 0.419706
vt 0.158156 0.471731
vt 0.104171 0.104171
vt 0.395829 0.104171
vt 0.395829 0.395829
vt 0.312500 0.500000
vt 0.375000 0.500000
vt 0.375000 0.500000
vt 0.562500 0.500000
vt 0.625000 0.500000
vt 0.625000 0.500000
vt 0.250000 0.500000
vt 0.312500 0.500000
vt 0.687500 0.500000
vt 0.750000 0.500000
vt 0.750000 0.500000
vt 0.375000 0.500000
vt 0.437500 0.500000
vt 0.437500 0.500000
vt 0.062500 0.500000
vt 0.125000 0.500000
vt 0.125000 0.500000
vt 0.812500 0.500000
vt 0.875000 0.500000
vt 0.500000 0.500000
vt 0.562500 0.500000
vt 1.000000 0.500000
vt 1.000000 0.500000
vt 0.187500 0.500000
vt 0.250000 0.500000
vt 0.687500 0.500000
vt 0.000000 0.500000
vt 0.062500 0.500000
vt 0.812500 0.500000
vt 0.500000 0.500000
vt 0.187500 0.500000
vt 0.971731 0.341844
vt 0.841844 0.028269
vt 0.528269 0.158156
vt 0.812500 0.500000
vt 0.312500 0.500000
vt 0.750000 0.500000
vt 0.250000 0.500000
vt 0.687500 0.500000
vt 0.187500 0.500000
vt 0.625000 0.500000
vt 0.125000 0.500000
vt 0.562500 0.500000
vt 1.000000 0.500000
vt 0.000000 0.500000
vt 0.062500 0.500000
vt 0.500000 0.500000
vt 0.937500 0.500000
vt 0.437500 0.500000
vt 0.875000 0.500000
vt 0.328922 0.440535
vt 0.250000 0.456234
vt 0.171078 0.440535
vt 0.104171 0.395829
vt 0.059465 0.328922
vt 0.043766 0.250000
vt 0.059465 0.171078
vt 0.171078 0.059465
vt 0.250000 0.043766
vt 0.328922 0.059465
vt 0.440535 0.171078
vt 0.456234 0.250000
vt 0.440535 0.328922
vt 0.658156 0.471731
vt 0.750000 0.490000
vt 0.841844 0.471731
vt 0.919706 0.419706
vt 0.990000 0.250000
vt 0.971731 0.158156
vt 0.919706 0.080294
vt 0.750000 0.010000
vt 0.658156 0.028269
vt 0.580294 0.080294
vt 0.510000 0.250000
vt 0.528269 0.341844
vt 0.580294 0.419706
vt 0.000000 0.500000
vt 1.000000 1.000000
vt 0.937500 1.000000
vt 0.875000 1.000000
vt 0.812500 1.000000
vt 0.750000 1.000000
vt 0.687500 1.000000
vt 0.625000 1.000000
vt 0.562500 1.000000
vt 0.500000 1.000000
vt 0.437500 1.000000
vt 0.375000 1.000000
vt 0.312500 1.000000
vt 0.250000 1.000000
vt 0.187500 1.000000
vt 0.125000 1.000000
vt 0.062500 1.000000
vt 0.000000 1.000000
vn 0.4159 0.6629 -0.6225
vn 0.0000 1.0000 0.0000
vn -0.8315 0.0000 0.5556
vn 0.4159 0.6629 0.6225
vn -0.7343 0.6629 0.1461
vn 0.7343 0.6629 0.1461
vn -0.4159 0.6629 0.6225
vn -0.4159 0.6629 -0.6225
vn 0.6225 0.6629 -0.4159
vn 0.1461 0.6629 0.7343
vn 0.1461 0.6629 -0.7343
vn -0.7343 0.6629 -0.1461
vn 0.6225 0.6629 0.4159
vn -0.6225 0.6629 0.4159
vn -0.1461 0.6629 -0.7343
vn 0.7343 0.6629 -0.1461
vn -0.1461 0.6629 0.7343
vn -0.6225 0.6629 -0.4159
vn 0.0000 -1.0000 0.0000
vn 0.9808 0.0000 -0.1951
vn -0.9808 0.0000 0.1951
vn 0.9808 0.0000 0.1951
vn -0.9808 0.0000 -0.1951
vn 0.8315 0.0000 0.5556
vn -0.8315 0.0000 -0.5556
vn 0.5556 0.0000 0.8315
vn -0.5556 0.0000 -0.8315
vn 0.1951 0.0000 0.9808
vn 0.1951 0.0000 -0.9808
vn -0.1951 0.0000 -0.9808
vn -0.1951 0.0000 0.9808
vn 0.5556 0.0000 -0.8315
vn -0.5556 0.0000 0.8315
vn 0.8315 0.0000 -0.5556
usemtl Material.011
s off
f 5/1/1 66/2/1 3/3/1
f 2/4/2 33/5/2 34/6/2
f 6/7/2 33/5/2 4/8/2
f 8/9/2 35/10/2 6/7/2
f 10/11/2 36/12/2 8/9/2
f 10/11/2 38/13/2 37/14/2
f 14/15/2 38/13/2 12/16/2
f 16/17/2 39/18/2 14/15/2
f 18/19/2 40/20/2 16/17/2
f 18/19/2 42/21/2 41/22/2
f 22/23/2 42/21/2 20/24/2
f 24/25/2 43/26/2 22/23/2
f 26/27/2 44/28/2 24/25/2
f 26/27/2 46/29/2 45/30/2
f 30/31/2 46/29/2 28/32/2
f 32/33/2 47/34/2 30/31/2
f 2/4/2 48/35/2 32/33/2
f 59/36/2 55/37/2 51/38/2
f 76/39/3 91/40/3 75/41/3
f 15/42/4 71/43/4 13/44/4
f 25/45/5 76/39/5 23/46/5
f 11/47/6 69/48/6 9/49/6
f 21/50/7 74/51/7 19/52/7
f 31/53/8 79/54/8 29/55/8
f 7/56/9 67/57/9 5/1/9
f 17/58/10 72/59/10 15/42/10
f 1/60/11 66/2/11 65/61/11
f 27/62/12 77/63/12 25/45/12
f 13/44/13 70/64/13 11/47/13
f 23/46/14 75/41/14 21/50/14
f 1/65/15 80/66/15 31/53/15
f 7/56/16 69/48/16 68/67/16
f 19/52/17 73/68/17 17/58/17
f 29/55/18 78/69/18 27/62/18
f 84/70/19 88/71/19 92/72/19
f 69/48/20 84/73/20 68/67/20
f 77/63/21 92/74/21 76/39/21
f 70/64/22 85/75/22 69/48/22
f 78/69/23 93/76/23 77/63/23
f 71/43/24 86/77/24 70/64/24
f 79/54/25 94/78/25 78/69/25
f 72/59/26 87/79/26 71/43/26
f 80/66/27 95/80/27 79/54/27
f 73/68/28 88/81/28 72/59/28
f 66/2/29 81/82/29 65/61/29
f 65/83/30 96/84/30 80/66/30
f 74/51/31 89/85/31 73/68/31
f 67/57/32 82/86/32 66/2/32
f 75/41/33 90/87/33 74/51/33
f 68/67/34 83/88/34 67/57/34
f 5/1/1 67/57/1 66/2/1
f 2/4/2 4/8/2 33/5/2
f 6/7/2 35/10/2 33/5/2
f 8/9/2 36/12/2 35/10/2
f 10/11/2 37/14/2 36/12/2
f 10/11/2 12/16/2 38/13/2
f 14/15/2 39/18/2 38/13/2
f 16/17/2 40/20/2 39/18/2
f 18/19/2 41/22/2 40/20/2
f 18/19/2 20/24/2 42/21/2
f 22/23/2 43/26/2 42/21/2
f 24/25/2 44/28/2 43/26/2
f 26/27/2 45/30/2 44/28/2
f 26/27/2 28/32/2 46/29/2
f 30/31/2 47/34/2 46/29/2
f 32/33/2 48/35/2 47/34/2
f 2/4/2 34/6/2 48/35/2
f 51/38/2 49/89/2 50/90/2
f 50/90/2 64/91/2 63/92/2
f 63/92/2 62/93/2 61/94/2
f 61/94/2 60/95/2 59/36/2
f 59/36/2 58/96/2 57/97/2
f 57/97/2 56/98/2 55/37/2
f 55/37/2 54/99/2 53/100/2
f 53/100/2 52/101/2 51/38/2
f 51/38/2 50/90/2 63/92/2
f 63/92/2 61/94/2 59/36/2
f 59/36/2 57/97/2 55/37/2
f 55/37/2 53/100/2 51/38/2
f 51/38/2 63/92/2 59/36/2
f 76/39/3 92/74/3 91/40/3
f 15/42/4 72/59/4 71/43/4
f 25/45/5 77/63/5 76/39/5
f 11/47/6 70/64/6 69/48/6
f 21/50/7 75/41/7 74/51/7
f 31/53/8 80/66/8 79/54/8
f 7/56/9 68/67/9 67/57/9
f 17/58/10 73/68/10 72/59/10
f 1/60/11 3/3/11 66/2/11
f 27/62/12 78/69/12 77/63/12
f 13/44/13 71/43/13 70/64/13
f 23/46/14 76/39/14 75/41/14
f 1/65/15 65/83/15 80/66/15
f 7/56/16 9/49/16 69/48/16
f 19/52/17 74/51/17 73/68/17
f 29/55/18 79/54/18 78/69/18
f 96/102/19 81/103/19 84/70/19
f 81/103/19 82/104/19 84/70/19
f 82/104/19 83/105/19 84/70/19
f 84/70/19 85/106/19 86/107/19
f 86/107/19 87/108/19 88/71/19
f 88/71/19 89/109/19 90/110/19
f 90/110/19 91/111/19 92/72/19
f 92/72/19 93/112/19 96/102/19
f 93/112/19 94/113/19 96/102/19
f 94/113/19 95/114/19 96/102/19
f 84/70/19 86/107/19 88/71/19
f 88/71/19 90/110/19 92/72/19
f 96/102/19 84/70/19 92/72/19
f 69/48/20 85/75/20 84/73/20
f 77/63/21 93/76/21 92/74/21
f 70/64/22 86/77/22 85/75/22
f 78/69/23 94/78/23 93/76/23
f 71/43/24 87/79/24 86/77/24
f 79/54/25 95/80/25 94/78/25
f 72/59/26 88/81/26 87/79/26
f 80/66/27 96/84/27 95/80/27
f 73/68/28 89/85/28 88/81/28
f 66/2/29 82/86/29 81/82/29
f 65/83/30 81/115/30 96/84/30
f 74/51/31 90/87/31 89/85/31
f 67/57/32 83/88/32 82/86/32
f 75/41/33 91/40/33 90/87/33
f 68/67/34 84/73/34 83/88/34
usemtl Material.012
f 34/116/29 3/3/29 1/60/29
f 33/117/32 5/1/32 3/3/32
f 35/118/34 7/56/34 5/1/34
f 36/119/20 9/49/20 7/56/20
f 37/120/22 11/47/22 9/49/22
f 38/121/24 13/44/24 11/47/24
f 39/122/26 15/42/26 13/44/26
f 40/123/28 17/58/28 15/42/28
f 41/124/31 19/52/31 17/58/31
f 42/125/33 21/50/33 19/52/33
f 43/126/3 23/46/3 21/50/3
f 44/127/21 25/45/21 23/46/21
f 45/128/23 27/62/23 25/45/23
f 46/129/25 29/55/25 27/62/25
f 24/25/20 61/94/20 26/27/20
f 47/130/27 31/53/27 29/55/27
f 48/131/30 1/65/30 31/53/30
f 10/11/23 54/99/23 12/16/23
f 26/27/22 62/93/22 28/32/22
f 12/16/25 55/37/25 14/15/25
f 28/32/24 63/92/24 30/31/24
f 16/17/27 55/37/27 56/98/27
f 30/31/26 64/91/26 32/33/26
f 16/17/30 57/97/30 18/19/30
f 2/4/31 49/89/31 4/8/31
f 32/33/28 50/90/28 2/4/28
f 18/19/29 58/96/29 20/24/29
f 6/7/33 49/89/33 51/38/33
f 22/23/32 58/96/32 59/36/32
f 6/7/3 52/101/3 8/9/3
f 22/23/34 60/95/34 24/25/34
f 8/9/21 53/100/21 10/11/21
f 34/116/29 33/117/29 3/3/29
f 33/117/32 35/118/32 5/1/32
f 35/118/34 36/119/34 7/56/34
f 36/119/20 37/120/20 9/49/20
f 37/120/22 38/121/22 11/47/22
f 38/121/24 39/122/24 13/44/24
f 39/122/26 40/123/26 15/42/26
f 40/123/28 41/124/28 17/58/28
f 41/124/31 42/125/31 19/52/31
f 42/125/33 43/126/33 21/50/33
f 43/126/3 44/127/3 23/46/3
f 44/127/21 45/128/21 25/45/21
f 45/128/23 46/129/23 27/62/23
f 46/129/25 47/130/25 29/55/25
f 24/25/20 60/95/20 61/94/20
f 47/130/27 48/131/27 31/53/27
f 48/131/30 34/132/30 1/65/30
f 10/11/23 53/100/23 54/99/23
f 26/27/22 61/94/22 62/93/22
f 12/16/25 54/99/25 55/37/25
f 28/32/24 62/93/24 63/92/24
f 16/17/27 14/15/27 55/37/27
f 30/31/26 63/92/26 64/91/26
f 16/17/30 56/98/30 57/97/30
f 2/4/31 50/90/31 49/89/31
f 32/33/28 64/91/28 50/90/28
f 18/19/29 57/97/29 58/96/29
f 6/7/33 4/8/33 49/89/33
f 22/23/32 20/24/32 58/96/32
f 6/7/3 51/38/3 52/101/3
f 22/23/34 59/36/34 60/95/34
f 8/9/21 52/101/21 53/100/21
