# Blender v3.6.0 OBJ File: 'AT4C.blend'
# www.blender.org
mtllib Fish.mtl
o Sphere.012
v 0.885886 1.036413 -0.244001
v 1.631470 0.819641 -0.401195
v 2.129654 0.495217 -0.506229
v 2.304593 0.112534 -0.543112
v 2.129654 -0.270150 -0.506229
v 1.631470 -0.594573 -0.401195
v 0.885886 -0.811346 -0.244001
v 1.250178 1.036413 -0.058577
v 2.304593 0.819641 -0.058577
v 3.009130 0.495217 -0.058577
v 3.009130 -0.270150 -0.058577
v 2.304593 -0.594573 -0.058577
v 1.250178 -0.811346 -0.058577
v 0.885886 1.036413 0.126846
v 1.631470 0.819641 0.284040
v 2.129653 0.495217 0.389074
v 2.304593 0.112534 0.425957
v 2.129653 -0.270150 0.389074
v 1.631470 -0.594573 0.284040
v 0.885886 -0.811346 0.126846
v 0.006410 1.036413 0.203651
v 0.006410 0.819641 0.425957
v 0.006410 0.495217 0.574497
v 0.006410 0.112534 0.626658
v 0.006410 -0.270150 0.574497
v 0.006410 -0.594573 0.425957
v 0.006410 -0.811346 0.203651
v -0.873066 1.036413 0.126846
v -1.618650 0.819641 0.284040
v -2.116834 0.495217 0.389074
v -2.291772 0.112534 0.425957
v -2.116834 -0.270150 0.389074
v -1.618650 -0.594573 0.284040
v -0.873066 -0.811346 0.126846
v -1.237357 1.036413 -0.058577
v -2.291772 0.819641 -0.058577
v -2.996310 0.495217 -0.058577
v -3.243711 0.112534 -0.058577
v -2.996310 -0.270150 -0.058577
v -2.291772 -0.594573 -0.058577
v -1.237357 -0.811346 -0.058577
v -0.873066 1.036413 -0.244001
v -1.618650 0.819641 -0.401195
v -2.116834 0.495217 -0.506229
v -2.291772 0.112534 -0.543112
v -2.116834 -0.270150 -0.506229
v -1.618650 -0.594573 -0.401195
v -0.873066 -0.811346 -0.244001
v 0.006410 -0.887466 -0.058577
v 0.006410 1.817643 -0.058577
v 0.006410 1.036413 -0.320806
v 0.006410 0.819641 -0.543112
v 0.006410 0.495217 -0.691652
v 0.006410 0.112534 -0.743813
v 0.006410 -0.270150 -0.691652
v 0.006410 -0.594573 -0.543112
v 0.006410 -0.811346 -0.320806
v 3.991817 1.179698 -0.570921
v 4.179161 0.112534 -0.608887
v 3.991817 -0.885534 -0.570921
v 3.079788 0.544152 -0.058577
v 3.342854 0.112534 -0.058577
v 3.079788 -0.319085 -0.058577
v 3.991817 1.179698 0.453766
v 4.179160 0.112534 0.491732
v 3.991817 -0.885534 0.453766
vt 0.750000 0.250000
vt 0.625000 0.125000
vt 0.750000 0.125000
vt 0.750000 0.375000
vt 0.625000 0.500000
vt 0.625000 0.375000
vt 0.750000 0.625000
vt 0.625000 0.750000
vt 0.625000 0.625000
vt 0.750000 0.875000
vt 0.687500 1.000000
vt 0.625000 0.875000
vt 0.687500 0.000000
vt 0.625000 0.250000
vt 0.750000 0.500000
vt 0.750000 0.750000
vt 0.500000 0.750000
vt 0.500000 0.625000
vt 0.562500 1.000000
vt 0.500000 0.875000
vt 0.562500 0.000000
vt 0.500000 0.125000
vt 0.500000 0.250000
vt 0.375000 0.625000
vt 0.375000 0.500000
vt 0.375000 0.625000
vt 0.500000 0.625000
vt 0.625000 0.625000
vt 0.437500 0.000000
vt 0.375000 0.125000
vt 0.500000 0.375000
vt 0.375000 0.250000
vt 0.625000 0.500000
vt 0.625000 0.375000
vt 0.375000 0.750000
vt 0.375000 0.375000
vt 0.500000 0.375000
vt 0.375000 0.375000
vt 0.437500 1.000000
vt 0.375000 0.875000
vt 0.250000 0.750000
vt 0.250000 0.125000
vt 0.250000 0.500000
vt 0.250000 0.375000
vt 0.250000 0.625000
vt 0.312500 1.000000
vt 0.250000 0.875000
vt 0.312500 0.000000
vt 0.250000 0.250000
vt 0.375000 0.500000
vt 0.125000 0.125000
vt 0.125000 0.375000
vt 0.125000 0.625000
vt 0.187500 1.000000
vt 0.125000 0.875000
vt 0.187500 0.000000
vt 0.125000 0.250000
vt 0.125000 0.500000
vt 0.125000 0.750000
vt 0.062500 1.000000
vt 0.000000 0.875000
vt 0.062500 0.000000
vt 0.000000 0.125000
vt 0.000000 0.250000
vt 0.000000 0.500000
vt 0.000000 0.750000
vt 0.000000 0.375000
vt 0.000000 0.625000
vt 1.000000 0.375000
vt 0.875000 0.250000
vt 1.000000 0.250000
vt 1.000000 0.500000
vt 0.875000 0.625000
vt 0.875000 0.500000
vt 1.000000 0.875000
vt 0.875000 0.750000
vt 1.000000 0.750000
vt 0.875000 0.125000
vt 1.000000 0.125000
vt 0.875000 0.375000
vt 1.000000 0.625000
vt 0.937500 1.000000
vt 0.875000 0.875000
vt 0.937500 0.000000
vt 0.812500 1.000000
vt 0.812500 0.000000
vt 0.500000 0.500000
vn 0.0609 -0.7146 -0.6968
vn 0.0862 -0.1346 -0.9871
vn 0.0792 0.4150 -0.9064
vn 0.0825 0.3171 -0.9448
vn 0.0243 -0.9601 -0.2787
vn 0.0792 -0.4150 -0.9064
vn 0.0862 0.1346 -0.9871
vn 0.0609 0.7146 -0.6968
vn 0.3232 0.7018 -0.6349
vn 0.3677 0.5855 -0.7225
vn 0.0607 -0.9910 -0.1192
vn 0.3232 -0.7018 -0.6349
vn -0.0449 0.0277 0.9986
vn 0.1873 0.9108 -0.3679
vn 0.1873 -0.9108 -0.3679
vn -0.2815 0.8138 0.5084
vn 0.0607 -0.9910 0.1192
vn 0.3232 -0.7018 0.6349
vn -0.0445 -0.0296 -0.9986
vn 0.1873 0.9108 0.3679
vn 0.1873 -0.9108 0.3679
vn -0.2630 -0.8449 -0.4659
vn 0.3232 0.7018 0.6349
vn 0.3677 0.5855 0.7225
vn 0.0609 0.7146 0.6968
vn 0.0609 -0.7146 0.6968
vn 0.0862 -0.1346 0.9871
vn 0.0792 0.4150 0.9064
vn 0.0825 0.3171 0.9448
vn 0.0243 -0.9601 0.2787
vn 0.0792 -0.4150 0.9064
vn 0.0862 0.1346 0.9871
vn -0.0609 -0.7146 0.6968
vn -0.0862 -0.1346 0.9871
vn -0.0792 0.4150 0.9064
vn -0.0825 0.3171 0.9448
vn -0.0243 -0.9601 0.2787
vn -0.0792 -0.4150 0.9064
vn -0.0862 0.1346 0.9871
vn -0.0609 0.7146 0.6968
vn -0.3677 0.5855 0.7225
vn -0.0607 -0.9910 0.1192
vn -0.3232 -0.7018 0.6349
vn -0.4353 0.2814 0.8552
vn -0.1873 0.9108 0.3679
vn -0.1873 -0.9108 0.3679
vn -0.4353 -0.2814 0.8552
vn -0.3232 0.7018 0.6349
vn -0.3232 -0.7018 -0.6349
vn -0.4353 0.2814 -0.8552
vn -0.1873 0.9108 -0.3679
vn -0.1873 -0.9108 -0.3679
vn -0.4353 -0.2814 -0.8552
vn -0.3232 0.7018 -0.6349
vn -0.3677 0.5855 -0.7225
vn -0.0607 -0.9910 -0.1192
vn -0.0609 -0.7146 -0.6968
vn -0.0862 -0.1346 -0.9871
vn -0.0792 0.4150 -0.9064
vn -0.0825 0.3171 -0.9448
vn -0.0243 -0.9601 -0.2787
vn -0.0792 -0.4150 -0.9064
vn -0.0862 0.1346 -0.9871
vn -0.0609 0.7146 -0.6968
vn 0.5212 0.3177 0.7921
vn 0.4637 -0.0534 0.8844
vn 0.5212 0.3177 -0.7921
vn 0.4637 -0.0534 -0.8844
vn -0.3795 -0.5479 0.7455
vn -0.0350 0.0800 -0.9962
vn -0.0350 -0.0800 0.9962
vn -0.3795 0.5479 -0.7455
vn -0.0350 0.0800 0.9962
vn -0.3795 0.5479 0.7455
vn -0.0350 -0.0800 -0.9962
vn -0.3795 -0.5479 -0.7455
vn 0.4626 0.0497 0.8852
vn 0.5212 -0.3177 0.7921
vn 0.4626 0.0497 -0.8852
vn 0.5212 -0.3177 -0.7921
vn -0.2630 -0.8449 0.4659
vn -0.0449 0.0277 -0.9986
vn -0.0445 -0.0296 0.9986
vn -0.2815 0.8138 -0.5084
usemtl Fish
s off
f 56/1/1 7/2/1 57/3/1
f 55/4/2 4/5/2 5/6/2
f 53/7/3 2/8/3 3/9/3
f 51/10/4 50/11/4 1/12/4
f 49/13/5 57/3/5 7/2/5
f 55/4/6 6/14/6 56/1/6
f 53/7/7 4/5/7 54/15/7
f 51/10/8 2/8/8 52/16/8
f 3/9/9 9/17/9 10/18/9
f 1/12/10 50/19/10 8/20/10
f 49/21/11 7/2/11 13/22/11
f 5/6/12 12/23/12 6/14/12
f 16/24/13 65/25/13 64/26/13
f 1/12/14 9/17/14 2/8/14
f 6/14/15 13/22/15 7/2/15
f 3/9/16 61/27/16 58/28/16
f 49/29/17 13/22/17 20/30/17
f 11/31/18 19/32/18 12/23/18
f 5/6/19 59/33/19 60/34/19
f 8/20/20 15/35/20 9/17/20
f 12/23/21 20/30/21 13/22/21
f 18/36/22 63/37/22 66/38/22
f 10/18/23 15/35/23 16/24/23
f 8/20/24 50/39/24 14/40/24
f 14/40/25 22/41/25 15/35/25
f 19/32/26 27/42/26 20/30/26
f 18/36/27 24/43/27 25/44/27
f 15/35/28 23/45/28 16/24/28
f 14/40/29 50/46/29 21/47/29
f 49/48/30 20/30/30 27/42/30
f 18/36/31 26/49/31 19/32/31
f 16/24/32 24/43/32 17/50/32
f 26/49/33 34/51/33 27/42/33
f 24/43/34 32/52/34 25/44/34
f 22/41/35 30/53/35 23/45/35
f 21/47/36 50/54/36 28/55/36
f 49/56/37 27/42/37 34/51/37
f 25/44/38 33/57/38 26/49/38
f 24/43/39 30/53/39 31/58/39
f 21/47/40 29/59/40 22/41/40
f 28/55/41 50/60/41 35/61/41
f 49/62/42 34/51/42 41/63/42
f 32/52/43 40/64/43 33/57/43
f 30/53/44 38/65/44 31/58/44
f 28/55/45 36/66/45 29/59/45
f 33/57/46 41/63/46 34/51/46
f 32/52/47 38/65/47 39/67/47
f 29/59/48 37/68/48 30/53/48
f 39/69/49 47/70/49 40/71/49
f 38/72/50 44/73/50 45/74/50
f 35/75/51 43/76/51 36/77/51
f 40/71/52 48/78/52 41/79/52
f 38/72/53 46/80/53 39/69/53
f 36/77/54 44/73/54 37/81/54
f 35/75/55 50/82/55 42/83/55
f 49/84/56 41/79/56 48/78/56
f 47/70/57 57/3/57 48/78/57
f 46/80/58 54/15/58 55/4/58
f 43/76/59 53/7/59 44/73/59
f 42/83/60 50/85/60 51/10/60
f 49/86/61 48/78/61 57/3/61
f 46/80/62 56/1/62 47/70/62
f 44/73/63 54/15/63 45/74/63
f 42/83/64 52/16/64 43/76/64
f 59/33/65 61/27/65 62/87/65
f 59/33/66 63/37/66 60/34/66
f 61/27/67 65/25/67 62/87/67
f 63/37/68 65/25/68 66/38/68
f 5/6/69 63/37/69 11/31/69
f 3/9/70 59/33/70 4/5/70
f 18/36/71 65/25/71 17/50/71
f 16/24/72 61/27/72 10/18/72
f 56/1/1 6/14/1 7/2/1
f 55/4/2 54/15/2 4/5/2
f 53/7/3 52/16/3 2/8/3
f 55/4/6 5/6/6 6/14/6
f 53/7/7 3/9/7 4/5/7
f 51/10/8 1/12/8 2/8/8
f 3/9/9 2/8/9 9/17/9
f 5/6/12 11/31/12 12/23/12
f 16/24/73 17/50/73 65/25/73
f 1/12/14 8/20/14 9/17/14
f 6/14/15 12/23/15 13/22/15
f 3/9/74 10/18/74 61/27/74
f 11/31/18 18/36/18 19/32/18
f 5/6/75 4/5/75 59/33/75
f 8/20/20 14/40/20 15/35/20
f 12/23/21 19/32/21 20/30/21
f 18/36/76 11/31/76 63/37/76
f 10/18/23 9/17/23 15/35/23
f 14/40/25 21/47/25 22/41/25
f 19/32/26 26/49/26 27/42/26
f 18/36/27 17/50/27 24/43/27
f 15/35/28 22/41/28 23/45/28
f 18/36/31 25/44/31 26/49/31
f 16/24/32 23/45/32 24/43/32
f 26/49/33 33/57/33 34/51/33
f 24/43/34 31/58/34 32/52/34
f 22/41/35 29/59/35 30/53/35
f 25/44/38 32/52/38 33/57/38
f 24/43/39 23/45/39 30/53/39
f 21/47/40 28/55/40 29/59/40
f 32/52/43 39/67/43 40/64/43
f 30/53/44 37/68/44 38/65/44
f 28/55/45 35/61/45 36/66/45
f 33/57/46 40/64/46 41/63/46
f 32/52/47 31/58/47 38/65/47
f 29/59/48 36/66/48 37/68/48
f 39/69/49 46/80/49 47/70/49
f 38/72/50 37/81/50 44/73/50
f 35/75/51 42/83/51 43/76/51
f 40/71/52 47/70/52 48/78/52
f 38/72/53 45/74/53 46/80/53
f 36/77/54 43/76/54 44/73/54
f 47/70/57 56/1/57 57/3/57
f 46/80/58 45/74/58 54/15/58
f 43/76/59 52/16/59 53/7/59
f 46/80/62 55/4/62 56/1/62
f 44/73/63 53/7/63 54/15/63
f 42/83/64 51/10/64 52/16/64
f 59/33/77 58/28/77 61/27/77
f 59/33/78 62/87/78 63/37/78
f 61/27/79 64/26/79 65/25/79
f 63/37/80 62/87/80 65/25/80
f 5/6/81 60/34/81 63/37/81
f 3/9/82 58/28/82 59/33/82
f 18/36/83 66/38/83 65/25/83
f 16/24/84 64/26/84 61/27/84
